<?xml version="1.0" encoding="UTF-8" standalone="no"?><svg xmlns="http://www.w3.org/2000/svg" xmlns:xlink="http://www.w3.org/1999/xlink" fill="#000000" height="500.8" preserveAspectRatio="xMidYMid meet" version="1" viewBox="0.0 0.0 379.3 500.8" width="379.3" zoomAndPan="magnify"><g><g id="change1_2"><path d="M246.2,54.194c0.49-0.698,1.208-1.279,1.117-1.674c-0.281-1.217-0.23-2.029,0.978-2.771 c0.556-0.342,0.699-1.353,1.119-2.253c-0.965-0.629-1.986-1.055-2.651-1.799c-0.612-0.684-0.833-1.715-1.24-2.586 c-2.814-6.025-6.414-11.449-11.524-15.833c-4.727-4.055-10.391-5.523-16.316-6.506c-8.23-1.366-16.021,0.226-23.426,3.678 c-13.406,6.25-21.168,20.42-19.247,35.125c0.538,4.117,1.737,8.148,2.651,12.214c0.28,1.243,0.7,2.377-0.304,3.618 c-0.989,1.222-0.651,2.813-0.206,4.173c1.923,5.877,4.376,11.398,10.233,14.552c0.795,0.428,1.525,1.217,1.972,2.014 c2.999,5.35,7.484,9.18,12.578,12.359c1.977,1.234,3.506,2.718,4.433,4.883c1.008,2.356,2.188,4.638,3.246,6.973 c1.47,3.246,3.675,5.606,7.313,6.36c0.621,0.129,1.221,0.39,1.809,0.641c6.643,2.832,12.592,1.192,18.047-2.957 c4.345-3.305,7.416-7.68,8.803-12.92c1.021-3.857,1.095-7.909-0.217-11.842c-1.066-3.196-2.1-6.403-3.062-9.631 c-0.317-1.062-0.496-2.203-0.508-3.31c-0.015-1.366,0.558-2.538,1.985-2.982c8.284-2.578,10.602-9.202,11.136-16.809 c0.412-5.868-2.201-9.588-7.705-11.931C246.937,54.865,246.722,54.608,246.2,54.194z" fill="#e0e111"/></g><g id="change2_2"><path d="M314.557,419.935c-8.507,0.196-16.444,0.325-24.377,0.577c-7.953,0.253-15.885,0.328-23.901-1.521 c-2.93,2.667-4.725,6.287-7.216,9.348c-8.519,10.467-16.834,21.14-26.782,30.307c-5.841,5.382-12.238,10.16-18.385,15.208 c-1.869,1.535-3.737,3.072-5.614,4.598c-2.118,1.723-3.181,4.13-3.949,6.605c-1.338,4.313,0.49,8.93,4.421,11.178 c1.785,1.021,3.746,1.938,5.741,2.353c9.466,1.972,18.799,2.245,28.047-1.591c6.608-2.741,12.934-5.845,18.663-10.129 c2.772-2.073,5.521-4.179,8.292-6.254c3.071-2.3,6.404-4.14,10.027-5.397c1.11-0.385,2.322-0.562,3.501-0.651 c6.154-0.466,18.183-2.694,23.65-5.313c1.135-0.544,2.09-1.812,2.735-2.966c2.028-3.631,2.264-7.27,3.884-11.089 c1.41-3.324,2.613-6.83,3.238-10.374c1.291-7.319-2.416-14.713-1.449-22.086C315.187,421.954,314.791,421.103,314.557,419.935z" fill="#000000"/></g><g id="change3_1"><path d="M245.787 98.402L241.971 106.345 242.011 109.814 236.371 112.316 226.872 119.204 218.052 126.428 211.827 125.517 210.871 119.49 207.396 115.17 201.789 123.469 180.6 132.05 156.119 144.245 153.196 148.895 147.664 163.677 147.424 191.906 147.706 222.219 153.765 240.434 157.677 261.168 161.684 282.594 159.302 281.983 157.261 281.646 87.393 272.449 80.111 270.254 74.296 267.464 71.2 271.101 72.453 278.664 68.719 297.753 77.122 309.847 90.388 319.865 104.994 324.223 126.391 331.74 175.07 344.226 191.179 348.065 217.625 327.539 222.856 296.96 222.007 278.466 227.386 278.989 237.39 277.348 268.005 274.914 300.926 267.381 329.014 254.34 341.207 242.307 341.547 235.46 350.223 202.374 347.532 196.561 351.719 196.157 362.292 194.24 379.315 175.177 376.45 154.619 374.092 147.031 368.522 143.336 355.105 119.67 341.771 108.269 319.344 84.496 306.165 86.135 272.088 87.991z" fill="#f4f4f4"/></g><g id="change1_1"><path d="M184.245 156.17L182.766 160.277 188.35 176.422 189.689 178.181 198.443 177.882 203.863 174.579 205.399 174.118 217.634 173.061 223.459 168.08 233.708 165.498 235.727 165.339 240.59 140.538 238.183 139.493 213.215 140.259 204.869 140.646 162.764 155.554 162.005 156.241 159.498 157.617 162.448 159.526 172.133 160.018 177.612 156.809z" fill="#e0e111"/></g><g id="change2_1"><path d="M75.363 268.85L87.304 266.732 170.991 235.007 174.685 234.186 176.815 231.034 174.987 228.688 121.521 174.418 110.535 170.123 57.605 192.035 3.637 211.126 1.988 212.149 0.988 216.655 5.649 222.096 60.338 271.609 63.186 271.976 69.608 272.766z" fill="#000000"/></g><g id="change3_2"><path d="M186.943 193.337L189.721 192.083 192.356 192.1 191.526 189.697 183.351 171.254 181.439 167.431 179.117 165.993 177.579 166.894 178.055 170.108z" fill="#f4f4f4"/></g><linearGradient gradientUnits="userSpaceOnUse" id="a" x1="22.593" x2="370.863" xlink:actuate="onLoad" xlink:show="other" xlink:type="simple" y1="317.793" y2="317.793"><stop offset="0" stop-color="#ffffff"/><stop offset="1" stop-color="#f878cd"/></linearGradient><path d="M275.057,184.977c-1.939,1.058-2.695,3.066-3.343,5.023c-3.733,11.282-7.642,22.514-9.049,34.421 c-0.451,3.821-1.239,7.613-2.066,11.376c-1.902,8.655-2.728,17.454-3.707,26.234c-0.409,3.672-0.718,7.356-1.144,11.025 c-0.107,0.92-0.494,1.808-0.756,2.724c-8.682,1.861-17.393,1.161-25.884,1.739c-1.525,1.709-1.506,3.738-2.046,5.552 c-0.963,3.228-1.695,6.531-2.771,9.718c-1.736,5.145-5.821,8.354-10.013,11.372c-0.866,0.623-2.09,0.802-3.179,1.052 c-7.825,1.798-15.663,3.54-23.488,5.339c-23.796,5.471-47.406,11.659-70.945,18.143c-16.295,4.488-32.071,10.441-47.805,16.499 c-8.55,3.292-16.646,7.652-24.408,12.538c-4.634,2.917-8.858,6.398-12.344,10.68c-2.131,2.617-4.254,5.241-6.319,7.909 c-2.245,2.901-3.302,6.219-3.187,9.893c0.167,5.329,0.923,10.555,2.698,15.61c1.592,4.535,4.555,7.695,9.143,9.242 c2.434,0.821,4.848,1.738,7.334,2.358c18.699,4.664,37.365,9.478,56.249,13.354c20.022,4.109,40.246,6.77,60.632,8.252 c8.335,0.606,16.656,1.402,24.984,2.113c0.799,0.068,1.604,0.239,2.396,0.19c1.536-0.095,2.779-0.707,3.345-2.292 c0.648-1.814,1.409-3.591,1.989-5.426c3.679-11.65,7.111-23.361,8.724-35.522c0.23-1.735,0.676-3.441,1.081-5.451 c1.151-0.08,2.232-0.308,3.281-0.204c9.617,0.946,19.263,0.811,28.907,0.917c5.453,0.06,10.86,0.801,16.457,1.751 c0.216,0.971,0.569,1.863,0.591,2.763c0.166,6.748,0.461,13.501,0.329,20.245c-0.109,5.611-0.776,11.21-1.13,16.818 c-0.142,2.241-0.237,4.499-0.127,6.737c0.183,3.743,1.916,6.699,4.859,9.041c4.441,3.534,9.334,4.793,14.903,3.47 c5.976-1.42,11.664-3.581,17.094-6.428c8.84-4.636,17.141-10.144,25.394-15.728c3.381-2.287,5.514-5.381,5.978-9.464 c0.761-6.703,1.478-13.412,2.082-20.13c0.092-1.018-0.447-2.127-0.828-3.144c-0.478-1.275-0.558-2.472,0.306-3.862 c1.19-0.423,2.54-0.896,3.886-1.382c7.174-2.595,13.019-6.897,17.155-13.384c0.777-1.219,1.594-2.419,2.287-3.686 c7.551-13.816,15.154-27.605,22.565-41.496c1.879-3.522,3.303-7.319,4.625-11.098c1.657-4.735,1.418-9.467-0.865-14.037 c-1.866-3.737-3.632-7.524-5.476-11.272c-7.377-14.989-14.762-29.973-22.16-44.952c-0.628-1.272-1.375-2.485-2.146-3.867 c-1.81,0.746-3.39,1.398-5.291,2.182c-0.3-0.918-0.643-1.607-0.743-2.329c-1.963-14.225-5.503-28.04-10.796-41.392 c-1.547-3.902-3.752-7.451-6.229-10.834c-0.887-1.211-1.924-2.084-3.476-2.359c-12.332-2.188-24.658-4.413-36.988-6.62 C275.472,184.872,275.306,184.939,275.057,184.977z" fill="url(#a)"/><g id="change1_3"><path d="M44.795 214.051L38.491 217.428 31.888 233.743 32.924 248.515 38.969 258.401 46.515 274.012 53.707 281.578 76.998 297.502 85.049 277.149 78.792 274.519 71.557 270.409 69.572 262.841 66.088 255.325 56.566 233.894 54.016 223.608 52.65 221.668 49.917 220.871 49.59 221.726z" fill="#e0e111"/></g><g><g id="change2_7"><path d="M164.305,376.369c-4.025,6.187-8.82,11.874-12.844,18.062c-2.991,4.599-4.197,10-5.436,15.367 c-1.668,7.229-2.599,14.387,1.035,21.128c0.304,0.564,0.914,0.96,1.131,1.56c0.337,0.932-0.01,1.774-1.16,1.848 c-0.354-0.461-0.607-1.303-0.914-1.85c-4.236-7.565-5.119-15.564-3.013-23.813c1.486-5.817,3.863-11.414,7.155-16.396 c4.777-7.228,10.494-13.837,15.236-21.088c1.459-2.23,2.692-4.579,3.057-7.294c-0.388-0.307-0.388-0.91-0.653-0.952 c-4.75-0.758-9.571-1.031-14.342-1.625c-6.685-0.832-13.302-2.258-19.999-2.997c-9.582-1.057-19.243-2.192-28.885-2.176 c-9.961,0.017-20.061,0.678-29.788,3.146c-0.727,0.184-1.216,0.55-2.539,0.55c0.563-0.831,0.5-1.822,0.901-1.944 c4.308-1.308,8.896-1.253,13.37-1.68c7.67-0.731,15.341-2.394,23.074-1.758c5.92,0.487,11.816,1.256,17.735,1.753 c7.675,0.645,15.279,1.844,22.89,2.951c11.254,1.637,22.416,3.713,33.592,5.828c4.382,0.829,8.796,1.512,13.104,2.725 c3.522,0.992,5.266,3.524,6.485,6.932c0.744,2.079,2.002,4.109,2.719,5.956c4.6,0.281,8.94,1.232,13.257,1.423 c4.769,0.211,7.846,1.935,9.323,6.281c1.182,3.478,1.829,7.125,2.763,10.685c0.243,0.926,1.194,1.731,1.358,2.68 c0.957,5.563-1.232,10.497-5.056,14.65c-2.741,2.977-3.187,6.817-3.95,10.644c-0.219,1.1-1.408,1.99-1.687,3.075 c-0.767,2.988-1.646,5.884-3.659,8.232c-6.087,7.096-12.517,13.896-20.609,18.763c-2.748,1.653-5.67,3.013-8.433,4.639 c-1.377,0.81-2.447,2.554-3.952,3.05c-4.631,1.527-8.754-1.412-9.778-6.177c-0.168-0.781,0.499-1.638,0.479-2.438 c-0.044-1.765-0.087-3.468,0.071-5.219c0.43-4.774-0.155-9.462,0.382-14.507c-3.302-4.466-3.743-10.003-3.616-15.55 c0.123-5.398,1.89-10.43,4.41-15.227c4.777-9.093,8.519-18.614,11.912-28.314c0.782-2.236,1.857-4.463,2.96-6.585 c0.338-0.651,0.982-0.41,1.43-1.241c-7.533-2.272-14.903-4.89-22.089-6.31C168.883,367.68,166.835,372.481,164.305,376.369z M203.769,380.916c-0.607-3.133-0.976-6.019-2.485-8.467c-1.675-2.718-4.308-2.109-6.319,0.363 c-0.596,0.733-1.984,1.036-2.331,1.913c-1.336,3.372-2.235,6.997-3.718,10.918C194.433,383.966,199.028,382.358,203.769,380.916z M175.971,425.891c0.137,2.895,0.884,4.407,2.478,7.025c3.442-9.373,3.349-18.962-0.151-22.899 C175.723,415.274,175.704,420.257,175.971,425.891z" fill="#000000"/></g><g id="change2_8"><path d="M193.168 57.505L208.584 50.293 227.869 43.732 229.93 46.71 231.905 57.215 238.361 70.141 240.705 70.153 243.223 65.464 242.882 61.375 248.279 55.162 247.969 33.642 239.123 23.859 224.448 19.661 224.639 16.09 224.806 8.456 216.174 0 202.902 3.912 199.577 17.775 199.992 20.409 196.249 21.242 185.19 24.816 172.045 46.786 172 51.635 172.653 60.502 178.595 77.124 179.548 79.198 181.851 78.223 179.514 72.998 185.004 72.448 187.983 72.579 192.862 74.552 194.602 74.283 194.107 72.605 193.43 72.794 184.61 70.209 180.408 72.278 177.497 56.912 180.622 56.047 189.262 56.854z" fill="#000000"/></g><g id="change2_9"><path d="M233.553,164.728c0.231-2.08,0.682-4.288,0.905-6.513c0.545-5.442,1.259-10.919,3.083-16.108 c1.318-3.75,4.156-5.706,8.222-5.849c7.223-0.254,14.429-0.94,21.652-1.233c8.721-0.354,17.019-2.072,25.193-5.16 c1.144-0.432,1.984-0.773,3.099-1.359c-0.152-1.696,0.259-2.949,0.324-4.369c0.125-2.715,0.095-5.443,0.447-8.138 c0.125-0.956,0.804-1.187,1.915-0.423c-0.555,4.146-0.96,8.574,0.04,13.043c6.341-0.539,12.47,0.369,18.564,2.052 c0.725,0.201,1.716-0.446,2.505-0.475c3.845-0.14,7.729-1.109,11.554-0.889c4.975,0.287,9.709,2.068,14.193,4.396 c0.648,0.336,0.721,0.653,1.259,1.064c-0.705,1.63-1.151,1.075-1.953,0.671c-4.372-2.205-9.084-2.872-13.89-3.406 c-0.786-0.088-2.008-0.287-2.266,1.301c0.986,0.445,2.494,0.222,3.358,0.611c4.232,1.908,8.189,4.416,12.361,6.448 c1.702,0.829,2.992,2.284,4.52,3.43c0.258,0.194,0.725,0.573,0.538,0.856c-0.166,0.253-1.108,0.596-1.417,0.425 c-2.655-1.463-4.941-3.629-7.644-4.992c-8.933-4.503-18.505-7.279-28.33-9.098c-6.594-1.221-13.231-1.452-19.546,1.183 c-1.768,0.738-3.572,1.308-5.406,1.867c-5.868,1.787-11.757,3.449-17.879,3.696c-7.385,0.298-14.76,0.714-22.142,1.078 c-0.801,0.04-1.542,0.112-2.33,0.253c-1.866,0.334-2.948,0.97-3.597,2.789c-0.752,2.11-1.612,4.156-2.114,6.332 c-1.778,7.697-2.945,15.46-3.614,23.297c-0.274,3.217,0.709,4.698,3.89,5.811c2.404,0.841,5.159,0.541,7.666,1.039 c8.803,1.749,17.595,3.554,26.391,5.336c0.761,0.154,1.657,0.29,1.876,1.532c-0.58,1.157-1.123,0.842-2.14,0.599 c-9.359-2.239-18.782-4.295-28.288-5.796c-2.042-0.322-4.356,0.111-6.293-0.623c-4.152-1.574-4.948-3.732-4.823-8.202 c0.021-0.76,0.089-1.534,0.003-2.287c0,0-0.131,0.019-0.131,0.019C233.048,166.862,233.372,166.791,233.553,164.728z" fill="#000000"/></g><g id="change2_10"><path d="M216.305,278.425c12.731,1.47,25.105,0.898,37.502-1.865c0.035,1.646,0.512,3.67,0.445,5.076 c-0.367,7.701-0.551,15.408-0.869,23.11c-0.57,13.802-2.384,27.567-2.69,41.376c-0.228,10.286-0.22,20.554-0.998,30.806 c-0.316,4.16-0.153,8.348-0.278,12.521c-0.025,0.831,0.039,2.07,1.317,2.046c0.176-0.318-0.257-1.21-0.232-1.61 c0.569-8.814,0.954-17.622,1.329-26.445c0.451-10.592,0.72-21.19,1.137-31.784c0.518-13.16,1.758-26.294,2.343-39.452 c0.214-4.815,0.35-9.628,0.482-14.445c0.021-0.774-0.158-1.135-0.29-2.184c-1.412,0.07-2.629-1.309-3.825-1.038 c-10.497,2.383-20.807,2.158-31.395,1.161c-1.891-0.178-2.39-0.881-3.17-2.374c-3.266-6.25-6.521-12.484-9.587-18.831 c-5.019-10.39-10.345-20.628-15.199-31.097c-2.224-4.797-4.051-9.763-6.158-14.612c-3.64-8.376-7.609-16.608-11.204-25.004 c-0.375-0.876-1.095-2.231-2.737-1.516c0.07,0.505,1.077,1.252,1.277,1.778c0.741,1.946,1.649,3.79,2.469,5.704 c3.471,8.104,6.729,16.286,10.349,24.324c3.224,7.16,6.026,14.51,9.352,21.625c3.054,6.534,6.504,12.895,9.429,19.487 C208.554,262.961,212.178,270.974,216.305,278.425z" fill="#000000"/></g><g id="change2_11"><path d="M317.883,396.017c-8.906,1.58-17.119,3.861-23.964,8.777c-3.387,2.432-6.528,5.175-10.033,7.431 c-2.281,1.468-4.505,3.014-6.995,4.073c-8.312,3.536-15.163,2.264-20.677-4c-1.578-1.793-2.69-4.045-4.09-5.997 c-0.549-0.766-0.394-1.291-1.307-0.447c2.424,5.577,5.534,10.384,11.049,13.165c4.231,2.133,8.946,2.232,13.327,0.638 c2.988-1.088,5.367-3.493,8.084-5.144c3.969-2.413,8.204-4.394,11.99-7.093c6.865-4.892,14.342-7.886,22.76-9.283 c0.618-0.103,0.489-1.305,1.151-1.556c1.54-13.852,3.344-27.624,5.019-41.432c1.589-13.105,1.449-26.266,1.799-39.427 c0.376-14.131,1.202-28.247,0.361-42.381c-0.602-10.111-1.981-20.101-3.711-30.07c-0.493-2.843-1.063-5.67-1.595-8.506 c-0.233-1.243-0.523-2.309-0.801-3.442c-1.131-0.369-2.435-0.297-2.29,0.815c0.289,2.224,2.06,4.214,2.511,6.412 c3.626,17.698,4.953,35.727,4.831,53.763c-0.119,17.674-0.641,35.358-1.847,52.998c-0.449,6.562-2.457,12.978-3.185,19.52 c-0.871,7.818-0.196,15.811-1.094,23.627C318.922,390.674,318.236,393.477,317.883,396.017z" fill="#000000"/></g><g id="change2_12"><path d="M320.715,195.695c4.935,0.574,9.796,1.832,14.735,2.371c9.082,0.991,18.166,0.15,26.628-3.532 c3.702-1.611,6.845-4.148,9.555-7.224c0.412-0.468,1.264-0.745,1.517-1.317c0.098-0.221-0.201-1.046-0.384-1.241 c-0.17-0.181-0.746,0.098-0.949,0.195c-0.415,0.199-0.96,0.263-1.275,0.608c-5.239,5.747-11.987,8.711-19.308,10.149 c-4.751,0.934-9.632,0.083-14.454-0.512c-3.657-0.451-7.416,0.07-11.087-0.244c-3.395-0.291-6.624-1.649-9.776-2.815 c-1.037-0.384-2.039-1.479-3.328-0.822c0.099,0.412,0.358,0.978,0.603,1.093c1.892,0.894,2.865,2.78,3.85,4.4 c5.053,8.31,8.192,17.501,10.55,26.867c2.002,7.953,3.116,16.108,3.996,24.254c0.464,4.302,0.946,8.599,1.648,12.872 c0.43,2.618,1.884,4.469,3.943,6.187c0.617,0.514,0.94,1.38,1.56,1.89c5.478,4.497,8.823,10.367,11.24,16.982 c0.935,2.558,2.494,4.887,3.429,7.444c0.291,0.796,0.345,1.34,1.524,1.03c0.065-0.366,0.59-0.707,0.467-1.063 c-1.155-3.327-2.373-6.637-3.612-9.933c-2.308-6.141-5.94-11.517-10.895-15.79c-0.852-0.734-1.968-1.16-2.826-1.887 c-1.531-1.297-1.942-3.104-2.296-5.019c-0.611-3.299-1.211-6.46-1.671-9.579c1.641-2.135,4.113-2.134,5.28-4.682 c-0.496-0.229-0.63-0.192-0.921-0.091c-1.051,0.363-2.11,0.686-3.153,1.081c-0.97,0.367-2.15-0.366-2.305-1.431 c-0.533-3.651-0.633-7.371-1.236-11.01c-2.161-13.033-5.967-25.573-12.067-37.358c-0.096-0.532-0.052-1-0.148-1.533 C319.968,196.016,320.291,195.714,320.715,195.695z" fill="#000000"/></g><g id="change2_13"><path d="M208.851,116.576c2.346-1.297,4.508,0.054,6.44-0.568c1.96-0.631,3.981-1.321,5.684-2.432 c1.574-1.027,2.887-2.543,4.084-4.03c1.292-1.602,2.335-3.412,2.464-5.948c-0.91,0.102-1.797-0.054-2.331,0.309 c-1.586,1.078-2.984,2.429-4.544,3.551c-5.847,4.206-11.948,4.423-17.958,0.554c-5.331-3.432-9.676-7.921-12.678-13.589 c-0.675-1.274-1.248-2.604-1.972-3.848c-0.192-0.329-0.806-0.658-1.161-0.598c-0.833,0.141-0.89,0.923-0.589,1.495 c1.414,2.687,2.659,5.512,4.424,7.957c3.411,4.726,7.635,8.633,12.77,11.542c1.899,1.076,3.534,2.617,5.521,4.121 c-0.706,1.002-1.211,1.719-1.947,2.764c0.419,2.584,2.021,4.9,3.994,7.055c3.256,3.555,8.918,3.858,12.331,1.366 c2.44-1.782,4.771-3.863,6.673-6.199c3.658-4.493,7.418-8.86,11.606-12.87c1.265-1.212,2.369-2.636,3.339-4.1 c0.88-1.33,1.556-2.833,1.348-4.524c-0.031-0.249-0.318-0.58-0.557-0.659c-0.246-0.081-0.588,0.075-0.87,0.177 c-0.134,0.048-0.302,0.196-0.328,0.324c-0.811,4.045-3.789,6.577-6.432,9.377c-2.752,2.915-5.368,5.959-8.041,8.948 c-1.711,1.914-3.339,3.911-5.158,5.717c-1.005,0.997-2.266,1.786-3.518,2.476c-2.831,1.561-5.612,1.172-8.077-0.78 C211.051,122.329,209.588,119.879,208.851,116.576z" fill="#000000"/></g><g id="change2_6"><path d="M159.73,283.001c-5.289-20.737-2.931-21.264-7.763-42.113c-2.181-9.41-4.676-8.823-5.927-18.402 c-1.977-15.137-0.64-15.302-0.651-30.567c-0.01-14.249-0.921-14.365,1.009-28.483c1.104-8.076,2.198-7.879,5.47-15.344 c1.18-2.692,0.806-3.339,3.304-4.888c11.832-7.334,12.084-7.008,24.754-12.776c10.403-4.736,10.49-4.598,21.521-7.595 c1.325-0.36,2.156,1.42,0.955,2.083c-9.982,5.513-10.951,3.455-21.333,8.174c-12.249,5.568-12.637,4.985-24.144,11.96 c-2.124,1.288-2.004,1.962-2.988,4.242c-3.052,7.069-3.767,7.02-4.782,14.653c-1.843,13.872-0.863,13.977-0.853,27.971 c0.011,15.037-1.17,15.162,0.782,30.072c1.244,9.501,4.136,8.793,6.295,18.129c4.833,20.898,5.584,20.871,7.977,42.187 C163.567,284.183,160.069,284.331,159.73,283.001z" fill="#000000"/></g><g id="change2_14"><path d="M286.025,85.844c2.394-0.24,3.97-0.906,5.339-1.253c9.444-2.395,26.189,1.928,34.432,9.085 c3.528,3.063,7.374,5.838,10.253,9.511c6.742,8.6,13.796,16.895,21.154,24.963c2.375,2.604,4.301,5.602,6.452,8.398 c5.642,7.336,10.274,15.209,12.177,24.334c0.181,0.869,0.253,1.684,1.513,1.314c0.618-1.521,0.337-3.214-0.08-4.72 c-1.68-6.065-4.523-11.687-7.955-16.964c-3.243-4.987-6.867-9.694-10.89-14.08c-7.162-7.81-14.155-15.752-20.705-24.096 c-2.071-2.639-4.696-4.839-7.136-7.154c-10.408-9.875-22.848-13.549-36.939-12.587c-2.054,0.14-4.085,0.642-6.104,1.124 C287.233,83.791,286.84,84.68,286.025,85.844z" fill="#000000"/></g><g id="change2_15"><path d="M216.126,190.858c1.627,6.195,3.075,12.435,4.543,18.67c0.29,1.23,0.515,2.537,0.451,3.812 c-0.234,4.676-2.447,8.22-6.636,10.44c-4.159,2.203-7.919,1.198-11.636-1.28c-3.551-2.367-6.302-5.427-8.544-8.987 c-4.177-6.634-6.936-13.965-10.47-20.738c0.292-0.403,0.471-0.467,0.586-0.489c9.701-1.886,19.364-4.029,29.753-6.033 C214.911,187.888,215.732,189.359,216.126,190.858z M187.55,195.552c1.886,4.059,3.596,8.219,5.722,12.151 c1.666,3.082,3.739,5.986,5.967,8.675c1.698,2.049,3.756,4.02,6.064,5.361c5.223,3.035,11.407,0.434,13.09-5.395 c0.519-1.799,0.701-3.879,0.41-5.703c-1.185-7.426-2.896-14.683-5.763-21.963c-8.591,1.7-17.134,3.134-25.877,4.864 C187.286,194.162,187.301,195.016,187.55,195.552z" fill="#000000"/></g><g id="change2_16"><path d="M38.881,247.77c-0.432-2.743-1.105-5.565-1.37-8.404c-0.497-5.316,0.367-10.553,1.348-15.757 c0.043-0.23,0.699-0.445,1.084-0.483c0.169-0.017,0.497,0.428,0.488,0.645c-0.055,1.279,0.032,2.579-0.131,3.849 c-0.664,5.171,0.034,10.21,1.047,15.26c0.167,0.834,0.025,2.113,1.26,2.339c0.928-0.107,1.017-0.929,0.969-1.53 c-0.063-0.793-0.456-1.547-0.652-2.324c-1.684-6.693-0.626-13.457-0.257-20.169c0.038-0.691,0.874-1.333,1.154-2.043 c0.336-0.854,0.978-1.768,0.922-2.634c-0.042-0.65-0.835-1.412-1.423-1.792c-0.81-0.524-1.446,0.068-1.765,0.859 c-0.503,1.247-1.661,1.097-2.601,1.483c-0.988,0.406-1.938,1.658-2.278,2.777c-0.431,1.422-1.953,2.779-0.51,4.493 c-0.205,2.707-0.532,5.441-0.913,8.123c-0.717,5.05,0.156,9.968,1.465,14.803C36.99,248.264,37.824,248.407,38.881,247.77z" fill="#000000"/></g><g id="change2_17"><path d="M74.852,268.957c1.597,0.734,2.927,0.976,4.011,1.59c3.04,1.721,5.117,5.77,3.466,9.716 c-0.8,1.913-1.785,3.761-2.711,5.62c-1.584,3.18-2.751,6.423-3.004,9.995c-0.251,3.552-0.79,6.95-3.866,9.443 c-0.173,0.141,0.125,1.023,0.384,1.244c0.234,0.2,0.846,0.203,1.166-0.01c1.499-1,2.549-2.336,3.004-4.123 c0.393-1.543,1.017-3.068,1.144-4.648c0.338-4.212,1.44-8.122,3.461-11.844c0.839-1.545,1.367-3.249,2.01-4.88 c1.969-4.997,0.174-10.121-4.658-12.515c-0.847-0.42-1.829-0.624-2.758-0.743C76.129,267.755,75.622,268.371,74.852,268.957z" fill="#000000"/></g><g id="change2_18"><path d="M156.285,284.021c1.17,1.788,2.537,1.78,3.787,1.451c1.857-0.488,3.623-1.298,5.454-1.888 c1.824-0.589,3.681-1.084,5.539-1.54c7.675-1.88,14.879-0.327,21.941,2.798c0.873,0.386,1.808,0.612,2.71,0.898 c0.307,0.098,0.894,0.049,1.207-0.219c0.118-0.101-0.048-0.851-0.225-1.018c-0.46-0.436-1.041-0.76-1.608-1.038 c-8.507-4.174-17.292-5.595-26.552-2.938c-1.997,0.573-3.913,1.421-5.904,2.015C160.696,283.118,158.65,283.446,156.285,284.021z" fill="#000000"/></g><g id="change2_19"><path d="M229.961,308.638c0.158,0.729-0.061,1.586,0.293,2.202c4.942,8.598,8.922,17.665,13.281,26.552 c0.34,0.693,1.007,1.214,1.493,1.828c0.066,0.084,0.249,0.077,0.355,0.012c0.239-0.146,0.764-0.261,0.791-0.474 c0.059-0.456,0.069-1.084-0.128-1.478c-4.641-9.28-8.833-18.776-14.202-27.689c-0.294-0.489-0.627-1.025-1.017-1.456 C230.513,308.265,230.275,308.51,229.961,308.638z" fill="#000000"/></g><g id="change2_20"><path d="M211.446,102.238c-2.253-0.228-4.129-0.375-5.987-0.644c-0.333-0.048-0.824-0.604-0.82-0.921 c0.004-0.309,0.516-0.829,0.859-0.878c1.101-0.16,2.241-0.055,3.342-0.217c2.048-0.301,4.087-0.685,6.113-1.114 c0.425-0.09,0.778-0.524,1.143-0.784c-1.16-1.698-2.486-0.778-3.641-0.702c-1.27,0.084-2.519,0.472-3.789,0.568 c-1.27,0.096-2.557,0.027-3.834-0.028c-1.206-0.052-2.502-0.912-3.698,0.734c0.807,0.53,1.942,0.896,2.375,1.66 c0.481,0.847,0.322,2.058,0.44,3.111C209.046,105.066,210.496,104.941,211.446,102.238z" fill="#000000"/></g><g id="change2_21"><path d="M49.742,243.44c0.505-0.039,1.003-0.069,1.679-0.121c-0.081-1.479-0.173-2.9-0.255-4.307 c-0.223-3.814-0.423-7.629-0.669-11.442c-0.084-1.307-0.193-2.458,1.356-3.165c0.431-0.197,0.651-1.444,0.574-2.164 c-0.069-0.651-0.669-1.182-1.215-2.159c-1.427,1.726-0.492,3.369-1.201,4.733c-0.39,0.182-0.758,0.416-1.362,0.699 C48.174,231.463,48.458,237.434,49.742,243.44z" fill="#000000"/></g><g id="change2_22"><path d="M207.521,70.627c1.789-1.297,3.64-2.518,5.351-3.911c1.681-1.369,3.579-2.021,5.678-2.202 c2.538-0.218,5.086-0.343,7.615-0.633c0.376-0.043,0.673-0.773,1.295-1.542c-5.164-0.519-9.72-0.182-14.167,1.117 c-2.483,0.725-4.702,2.064-6.114,4.326c-0.428,0.686-0.378,1.67-0.548,2.518C206.928,70.408,207.225,70.517,207.521,70.627z" fill="#000000"/></g><g id="change2_23"><path d="M210.13,80.003c1.711,0.665,3.113,1.36,4.595,1.716c0.667,0.16,1.707-0.145,2.19-0.627 c0.442-0.442,0.353-1.408,0.517-2.14c0.067-0.301,0.183-0.59,0.277-0.885c2.366-1.673,5.563,0.388,8.43-1.802 c-4.014-1.732-7.589-0.798-11.051-0.339C213.14,76.185,211.057,76.964,210.13,80.003z" fill="#000000"/></g><g id="change2_24"><path d="M206.818,94.526c-3.438-3.355-3.491-3.353-3.689-8.31c-0.129-3.224-0.44-6.376-2.458-9.044 c-0.553-0.731-1.372-1.275-2.127-1.824c-0.144-0.105-0.629,0.096-0.834,0.287c-0.183,0.17-0.343,0.59-0.255,0.779 c0.195,0.421,0.531,0.787,0.847,1.142c1.9,2.127,2.591,4.683,2.675,7.459c0.057,1.909,0.039,3.824,0.187,5.725 c0.102,1.309,0.733,2.434,1.854,3.196C204.054,94.64,205.069,95.53,206.818,94.526z" fill="#000000"/></g><g id="change2_25"><path d="M197.312,80.77c-3.724-1.586-7.493-3.009-11.607,0.409c1.683,1.938,3.316,3.457,5.778,3.897 c0.431-0.267,1.03-0.421,1.188-0.773c0.746-1.661,1.825-2.453,3.733-2.064C197.047,82.371,197.536,81.825,197.312,80.77z" fill="#000000"/></g><g id="change2_26"><path d="M242.882,76.246c1.842-0.285,3.03-1.634,3.907-3.107c0.529-0.889,0.65-2.144,0.615-3.224 c-0.162-4.948-0.205-4.946,2.501-9.083c-0.679-0.081-1.35-0.382-1.671-0.165c-2.472,1.673-3.483,4.084-3.251,7.035 c0.025,0.319,0.072,0.642,0.158,0.949c0.642,2.288-0.106,4.044-1.98,5.43C242.463,74.597,242.113,75.287,242.882,76.246z" fill="#000000"/></g><g id="change2_27"><path d="M180.5,285.793c0.175,0.258,0.286,0.725,0.505,0.77c4.5,0.906,8.191,3.367,11.851,5.951 c0.255,0.18,0.945-0.08,1.336-0.274c0.124-0.062,0.118-0.743-0.038-0.892c-3.526-3.369-7.569-5.716-12.462-6.468 c-0.288-0.044-0.638-0.005-0.86,0.165C180.637,285.194,180.604,285.523,180.5,285.793z" fill="#000000"/></g></g><g id="change2_3"><path d="M225.713,169.088c-3.608,2.881-7.631,4.769-12.207,5.431c-3.122,0.452-6.225,0.461-9.303-0.396 c-0.998-0.278-2.068-0.573-3.071-0.484c-1.066,0.095-2.092,0.636-3.179,0.997c-0.737-0.796-1.435-1.549-2.389-2.577 c0.905-0.517,1.607-1.257,2.281-1.233c1.529,0.055,3.055,0.443,4.565,0.773c7.605,1.662,14.972,1.432,21.177-3.855 c3.027-2.579,6.157-3.682,9.99-3.249c0.284,0.032,0.605-0.256,1.182-0.521l-0.34,4.465l-0.001,0.001 c-0.056-0.497-0.234-0.976-0.659-1.417C229.099,166.458,229.063,166.413,225.713,169.088z" fill="#000000"/></g><g id="change2_4"><path d="M191.673,166.246c0.39-0.949,0.869-1.868,1.398-2.747c0.124-0.207,0.749-0.369,0.906-0.246 c0.332,0.258,0.789,0.805,0.703,1.081c-0.666,2.136-1.369,4.268-2.217,6.337c-1.035,2.528-1.157,4.991-0.035,7.51 c0.066,0.148-0.321,0.498-0.583,0.878c-0.413-0.168-1.124-0.235-1.253-0.545c-0.708-1.703-1.274-3.464-1.915-5.28 c-2.894-1.304-2.894-1.304-3.594-5.814c-0.81-0.526-1.643-1.068-2.367-1.538c-0.22-4.453,1.175-11.52,2.894-14.789 c0.237-0.45,0.517-0.99,0.927-1.211c0.701-0.376,1.76-0.961,2.239-0.692c1.015,0.57,0.293,1.268-0.274,2.006 c-0.711,0.924-1.128,2.085-1.598,3.175c-0.105,0.245,0.099,0.623,0.233,1.311c1.259-0.087,2.551-0.176,4.311-0.296 c-0.63,1.945-1.107,3.399-1.573,4.857c-0.684,2.138-1.457,4.253-2.01,6.425c-0.466,1.83-0.578,3.709,1.367,5.885 C190.203,170.029,190.902,168.123,191.673,166.246z M185.88,158.669c-0.062,0.194,0.633,0.629,0.981,0.953 c0.39-0.533,0.893-1.024,1.117-1.62c0.1-0.266-0.361-0.744-0.813-1.577C186.572,157.403,186.095,157.994,185.88,158.669z" fill="#000000"/></g><g id="change2_5"><path d="M159.26,157.481c2.877,2.077,4.101,1.945,5.61-0.444c0.298-0.471,0.411-1.432,0.13-1.824 c-0.716-1-1.222-0.184-1.921,0.348C162.085,156.317,160.824,156.723,159.26,157.481z" fill="#000000"/></g><g id="change3_3"><path d="M117.775,174.206c-9.312,2.758-18.238,6.469-27.431,9.664c-9.22,3.204-18.428,6.433-27.63,9.691 c-9.171,3.247-18.624,5.633-28.112,8.971c-0.301-1.143-0.122-1.981-0.342-2.816c-0.289-0.114-1.132-0.686-1.352-0.615 c-2.87,0.92-5.767,2.167-8.392,3.045c-0.66,2.181,2.089,1.463,2.129,2.723c-0.095,0.23-0.488,0.078-0.663,0.143 c-6.303,2.328-12.329,5.414-18.647,7.702c-1.956,0.709-4.26,0.492-6.203,1.233c-0.553,0.211-0.178,1.295-1.131,1.981 c0.997,0.298,1.156,1.308,1.616,1.189c1.701-0.439,3.211-1.622,4.869-2.21c36.671-13,73.278-26.2,109.926-39.201 c1.744,0.44,2.538,2.239,3.621,3.367c17.028,17.744,33.775,35.757,50.798,53.506c1.184,1.235,2.534,2.44,4.394,3.211 c0.224-0.589,1.236-1.538,1.1-1.768c-0.475-0.809-1.286-1.591-1.938-2.272c-18.338-19.159-36.716-38.28-55.067-57.427 C119.099,174.095,118.595,174.917,117.775,174.206z" fill="#f4f4f4"/></g><g id="change3_4"><path d="M12.46,220.001c0.538,0.669,0.953,1.542,1.656,1.965c0.771,0.464,1.797,0.516,2.562-0.275 c0.2-0.207,0.413-0.602,0.333-0.807c-0.266-0.68-0.525-1.432-1.017-1.941c-0.719-0.744-1.717-0.699-2.592-0.234 C13.046,218.898,12.877,219.406,12.46,220.001z" fill="#f4f4f4"/></g></g></svg>