<?xml version="1.0" encoding="UTF-8"?><svg xmlns="http://www.w3.org/2000/svg" xmlns:xlink="http://www.w3.org/1999/xlink" height="334.9" preserveAspectRatio="xMidYMid meet" version="1.0" viewBox="0.0 -3.0 382.8 334.9" width="382.8" zoomAndPan="magnify"><g id="change1_3"><path d="M180.828 180.318L190.331 253.655 245.69 294.415 226.252 315.269 167.89 296.05 147.336 239.259z" fill="#F89A00"/></g><g id="change1_1"><path d="M119.961,135.02l-57.779,7.314c-16.253,2.057-30.001,13.009-35.641,28.39l0,0 c-13.357,36.429-21.335,74.61-23.682,113.339L0,331.226h129.663l29.539-67.567c5.779-13.219,10.3-26.954,13.503-41.021 l7.157-31.437c4.423-19.427-6.723-39.015-25.684-45.136L119.961,135.02z" fill="#F89A00"/></g><g id="change2_31"><path d="M112.344,8.796c9.092,10.58,7.886,26.528-2.693,35.62s-26.528,7.886-35.62-2.693c-9.092-10.58-7.886-26.528,2.694-35.62 C87.304-2.99,103.251-1.784,112.344,8.796z" fill="inherit"/></g><g id="change1_4"><path d="M127.391,26.461c7.377,8.584,6.399,21.523-2.186,28.901c-8.584,7.377-21.523,6.399-28.901-2.186 c-7.377-8.584-6.399-21.523,2.186-28.901C107.074,16.898,120.014,17.876,127.391,26.461z" fill="#F89A00"/></g><g id="change3_6"><path d="M168.956,80.23c0,0,7.005-5.442,12.124,1.02c7.779,9.82-5.834,27.604-17.672,18.448L168.956,80.23z" fill="#FFAD65"/></g><g id="change2_15"><path d="M167.889,94.415c-0.087,0-0.176-0.02-0.26-0.063c-0.28-0.144-0.39-0.487-0.247-0.767c4.403-8.579,8.651-7.358,8.831-7.303 c0.3,0.094,0.467,0.414,0.373,0.714c-0.093,0.298-0.406,0.464-0.707,0.375c-0.071-0.019-3.585-0.858-7.482,6.734 C168.295,94.303,168.096,94.415,167.889,94.415z" fill="inherit"/></g><g id="change3_7"><path d="M94.904,80.868c0,0-8.071-6.08-13.191,0.383c-7.779,9.82,5.834,27.604,17.672,18.448L94.904,80.868z" fill="#FFAD65"/></g><g id="change2_17"><path d="M94.905,94.415c-0.207,0-0.406-0.113-0.507-0.31c-3.917-7.63-7.448-6.747-7.483-6.734 c-0.301,0.083-0.615-0.086-0.705-0.385c-0.088-0.298,0.074-0.611,0.371-0.705c0.179-0.057,4.427-1.276,8.831,7.303 c0.144,0.28,0.033,0.624-0.247,0.767C95.081,94.395,94.992,94.415,94.905,94.415z" fill="inherit"/></g><g id="change2_6"><circle cx="131.734" cy="60.711" fill="inherit" r="44.983" transform="rotate(-22.215 131.716 60.705)"/></g><g id="change3_8"><path d="M120.871 99.321L103.976 143.392 133.043 152.413 142.908 105.624z" fill="#FFAD65"/></g><g id="change3_11"><path d="M93.766,58.395c0,0-4.724,67.471,36.328,67.471c44.398,0,39.743-67.471,39.743-67.471 s-0.251-30.384-38.376-30.384C96.51,28.012,93.766,58.395,93.766,58.395z" fill="#FFAD65"/></g><g id="change2_21"><path d="M136.773,97.866c-0.023,0-0.047-0.001-0.071-0.004l-2.814-0.354c-0.309-0.039-0.529-0.317-0.496-0.626l0.559-5.225 c0.033-0.313,0.307-0.545,0.627-0.506c0.313,0.033,0.54,0.314,0.506,0.627l-0.499,4.668l2.259,0.284 c0.312,0.039,0.534,0.324,0.495,0.636C137.301,97.655,137.056,97.866,136.773,97.866z" fill="inherit"/></g><g id="change2_18"><path d="M147.486,69.285c0,0-1.392,3.557,4.295,4.245c4.318,0.522,9.468,2.211,11.903,3.008c1.382,0.452,2.963,0.066,3.744-0.907 l0,0c0.631-0.786,0.62-1.797-0.064-2.575c-1.385-1.577-6.725-5.428-11.971-6.12C148.655,66.048,147.486,69.285,147.486,69.285z" fill="inherit"/></g><g id="change2_22"><path d="M130.084,67.514c0,0,0.608,3.771-5.096,3.241c-4.331-0.402-9.722,0.159-12.27,0.424c-1.447,0.15-2.91-0.562-3.468-1.678 l0,0c-0.451-0.902-0.226-1.887,0.606-2.503c1.687-1.248,7.72-3.884,12.995-3.45C129.626,64.104,130.084,67.514,130.084,67.514z" fill="inherit"/></g><g><g id="change4_3"><path d="M123.87,102.52l22.166,2.37c0,0-2.462,6.013-11.746,5.021C125.005,108.918,123.87,102.52,123.87,102.52z" fill="#FFF"/></g></g><g id="change2_33"><path d="M125.824,85.259c-0.307,0-0.609-0.139-0.806-0.403c-0.115-0.151-2.608-3.294-7.45-0.654 c-0.488,0.266-1.098,0.086-1.365-0.402c-0.266-0.488-0.086-1.099,0.402-1.365c6.43-3.502,9.992,1.172,10.027,1.219 c0.331,0.447,0.236,1.077-0.21,1.407C126.241,85.195,126.031,85.259,125.824,85.259z" fill="inherit"/></g><g id="change2_29"><path d="M156.726,88.563c-0.306,0-0.608-0.139-0.806-0.402c-0.11-0.144-2.603-3.296-7.45-0.654 c-0.487,0.267-1.098,0.086-1.365-0.402c-0.266-0.488-0.086-1.099,0.402-1.365c6.429-3.501,9.991,1.172,10.026,1.219 c0.331,0.447,0.236,1.076-0.21,1.407C157.143,88.499,156.933,88.563,156.726,88.563z" fill="inherit"/></g><g id="change3_14"><path d="M93.6 138.357L118.447 200.333 150.096 144.748 119.961 135.02z" fill="#FFAD65"/></g><g id="change3_4"><path d="M323.157 275.048L325.994 322.834 295.165 324.033 297.565 268.067z" fill="#FFAD65"/></g><g id="change5_1"><path d="M220.888,221.564l-3.999-0.7c-23.226-0.713-33.431,6.783-42.687,25.593l-7.439,14.174l31.222,17.067 l-1.347,26.944l102.51,11.342l2.616-35.43l24.183-0.795c0.396-17.236-1.224-46.62-23.183-50.895l-16.979-3.318L220.888,221.564z" fill="#3F2952"/></g><g><g><g><g id="change4_1"><path d="M113.301 312.287H382.805V331.644H113.301z" fill="#FFF"/></g></g></g><g opacity=".27"><g><g id="change2_9"><path d="M113.301 312.287H382.805V331.644H113.301z" fill="inherit"/></g></g></g></g><g id="change2_25"><path d="M245.968,128.705c0,0-16.77-2.285-20.736,9.999c-3.441,10.656,1.972,25.131,1.972,25.131l8.706-27.617L245.968,128.705z" fill="inherit"/></g><g id="change2_14"><path d="M280.645,127.579c0,0,22.534-2.265,21.445,15.877c-0.877,14.611-15.58,32.823-15.58,32.823l3.602-30.543L280.645,127.579z" fill="inherit"/></g><g id="change2_39"><path d="M282.33,141.865c0,0,15.805-12.306,2.786-24.174c-10.631-9.691-19.253-4.175-33.474-9.071 c-16.009-5.511-25.808,4.782-26.708,13.803c-1.683,16.871,24.961,28.514,24.961,28.514L282.33,141.865z" fill="inherit"/></g><g><g id="change3_9"><path d="M229.723,163.787c0,0-4.637-4.937-9.267-0.671c-7.035,6.483,1.121,21.514,11.138,16.015L229.723,163.787z" fill="#FFAD65"/></g><g id="change2_19"><path d="M228.909,174.619c-0.199,0-0.379-0.138-0.425-0.34c-1.19-5.277-4.921-5.924-4.958-5.93 c-0.237-0.037-0.399-0.26-0.362-0.497c0.036-0.238,0.264-0.406,0.497-0.362c0.178,0.027,4.354,0.75,5.673,6.598 c0.053,0.234-0.095,0.467-0.329,0.521C228.973,174.616,228.941,174.619,228.909,174.619z" fill="inherit"/></g></g><g><g id="change3_10"><path d="M286.035,172.657c0,0,5.93-3.273,9.024,2.21c4.701,8.332-7.68,20.128-15.522,11.815L286.035,172.657z" fill="#FFAD65"/></g><g id="change2_7"><path d="M283.613,183.237c-0.072,0-0.146-0.019-0.214-0.057c-0.209-0.118-0.283-0.383-0.165-0.593 c2.952-5.238,7.251-4.574,7.437-4.542c0.235,0.04,0.395,0.264,0.355,0.5c-0.039,0.237-0.268,0.386-0.5,0.358 c-0.159-0.03-3.896-0.573-6.534,4.111C283.911,183.157,283.764,183.237,283.613,183.237z" fill="inherit"/></g></g><g id="change2_1"><circle cx="260.224" cy="153.216" fill="inherit" r="34.972" transform="rotate(-67.107 260.228 153.222)"/></g><g id="change3_5"><path d="M242.868 197.934L235.293 229.358 261.609 233.504 262.973 200.712z" fill="#FFAD65"/></g><g id="change2_26"><path d="M242.206,200.243c0.814,0.568,20.23,13.373,20.23,13.373l0.536-12.904L242.206,200.243z" fill="inherit"/></g><g id="change3_1"><path d="M232.263,147.309c0,0-10.464,52.016,19.144,56.679c31.244,4.922,38.236-47.641,38.236-47.641 s3.421-22.948-25.337-27.478C237.943,124.716,232.263,147.309,232.263,147.309z" fill="#FFAD65"/></g><g><g id="change2_30"><path d="M273.962,156.54c0,0-6.165-2.238-6.998,1.138c0,0-0.516,2.298,4.894,4.11s9.269,2.678,10.263,0.644 C283.114,160.399,276.921,157.291,273.962,156.54z" fill="inherit"/></g><g id="change2_37"><path d="M244.756,152.279c0,0-6.517-0.732-6.537,2.746c0,0,0.037,2.355,5.721,2.849c5.684,0.494,9.782,0.476,10.172-1.999 C254.567,152.993,247.809,152.315,244.756,152.279z" fill="inherit"/></g><g id="change2_4"><path d="M248.936,168.537c-0.217,1.38-1.513,2.323-2.893,2.105c-1.38-0.217-2.323-1.513-2.105-2.893 c0.217-1.38,1.513-2.323,2.893-2.106C248.211,165.862,249.154,167.157,248.936,168.537z" fill="inherit"/></g><g id="change2_11"><path d="M273.457,172.4c-0.217,1.38-1.513,2.323-2.893,2.105c-1.38-0.217-2.323-1.513-2.106-2.893 c0.217-1.38,1.513-2.323,2.893-2.106C272.731,169.724,273.674,171.019,273.457,172.4z" fill="inherit"/></g><g id="change2_28"><path d="M257.671,181.153c-0.023,0-0.046-0.002-0.068-0.006l-2.9-0.457c-0.237-0.037-0.399-0.26-0.362-0.497l0.839-5.324 c0.037-0.238,0.275-0.399,0.497-0.362c0.237,0.037,0.399,0.26,0.362,0.497l-0.771,4.895l2.471,0.39 c0.237,0.037,0.399,0.26,0.362,0.497C258.067,180.999,257.881,181.153,257.671,181.153z" fill="inherit"/></g><g id="change4_4"><path d="M246.439,184.39l18.66,3.004C265.099,187.394,254.777,199.411,246.439,184.39z" fill="#FFF"/></g></g><g id="change2_38"><path d="M234.562,141.67c0,0,4.713-11.296,25.577-8.697c12.569,1.566,26.727,11.549,31.274,2.617l-8.697-15.922l-44.455-0.303 L234.562,141.67z" fill="inherit"/></g><g id="change2_12"><path d="M288.647,130.954c0,0-11.376,10.944,2.451,26.184C291.098,157.138,297.235,142.365,288.647,130.954z" fill="inherit"/></g><g id="change3_16"><path d="M250.548,210.271l35.236,15.274c0,0-35.446,24.046-72.202-4.726L250.548,210.271z" fill="#FFAD65"/></g><g id="change3_12"><path d="M169.994,262.397l-13.357,36.927c-4.52,12.497,4.609,25.727,17.897,25.936l74.598,1.173l1.693-19.99 l-61.229-8.002l8.387-20.743L169.994,262.397z" fill="#FFAD65"/></g><g><g><g><g id="change2_32"><path d="M241.028 285.577L237.118 282.979 239.952 278.701 243.938 281.242z" fill="inherit"/></g></g></g><g><g><g id="change2_5"><path d="M288.56,315.694l2.519,1.167c0.539,0.249,0.81-0.109,0.394-0.518l-1.942-1.91 C288.801,314.494,288.441,315.012,288.56,315.694z" fill="inherit"/></g></g></g><g><g><g id="change1_2"><path d="M282.569,307.195l0.277,0.187l-0.04,0.061l6.995,7.171c-0.683,0.101-1.046,0.611-0.961,1.265 l-9.317-4.102l-0.024,0.037l-0.206-0.139l-38.631-26.345l1.459-2.159l1.456-2.179L282.569,307.195z" fill="#F89A00"/></g></g></g><g><g><g id="change3_13"><path d="M237.481,283.224l-1.037-0.722c-1.32-0.918-1.777-2.54-1.038-3.68l0,0 c0.762-1.178,2.515-1.407,3.913-0.512l1.01,0.646L237.481,283.224z" fill="#FFAD65"/></g></g></g></g><g id="change3_3"><path d="M245.079,306.614l12.726-7.464c1.66-0.974,3.612-1.327,5.508-0.996l16.164,2.822 c0,0,3.333,3.412,1.098,5.49c0,0,3.019,2.863,1.372,5.843c0,0,2.431,2.98,0.078,6.509c0,0,1.529,2.549-1.569,4.392l-13.982,3.723 l-17.432-0.5L245.079,306.614z" fill="#FFAD65"/></g><g id="change2_16"><path d="M201.083,321.696c-0.021,0.084-0.05,0.168-0.069,0.253c15.421,0.086,30.441,1.7,44.785,4.848 c0,0,29.617,0.344,44.406,1.375c0,0,0.058-0.002,0.16-0.005c-11.97-5.868-22.703-14.489-37.403-17.965 C236.067,311.733,216.896,318.106,201.083,321.696z" fill="inherit"/></g><g id="change4_2"><path d="M340.776,320.347c0.326,2.051,1.493,3.951,1.571,6.01c-16.75,0.62-49.465,1.725-51.982,1.81 c-11.97-5.868-24.994-10.972-39.693-14.447c0.184-0.017,0.369-0.035,0.553-0.052c-0.184,0.016-0.369,0.035-0.553,0.052 c-0.071-0.017-0.14-0.035-0.21-0.052c0.071,0.017,0.14,0.035,0.21,0.052c-16.896,1.531-33.776,4.387-49.589,7.977 c0.59-2.361,2.095-4.65,4.4-6.659c15.157-3.549,31.924-6.374,48.134-7.92c2.481-0.237,7.773,1.466,10.07,2.01 c3.626,0.859,7.192,1.845,10.521,3.022c7.719,2.729,15.684,6.369,18.993,11.274c7.302-7.826,21.02-11.492,35.551-14.112 c0.063-0.002,0.125-0.004,0.188-0.006c1.73,0.725,3.829,1.384,5.559,2.109c-11.223,1.527-20.815,5.34-30.39,8.933 c11.472-2.528,24.459-3.54,36.771-3.065c0.093,0.414-0.188,0.968-0.095,1.382c-8.844-0.052-18.052,0.413-26.722,1.385 C322.994,319.748,331.892,319.756,340.776,320.347z" fill="#FFF"/></g><g><g><g><g id="change3_2"><path d="M110.208,318.28l36.16-2.942l2.785-17.484l-34.556-9.146C113.709,294.741,110.208,318.28,110.208,318.28 z" fill="#FFAD65"/></g></g></g><g><g><g><g id="change3_15"><path d="M202.533,324.951l-9.894-14.799c-3.833-5.735-9.969-9.446-16.831-10.181l-36.879-3.949 c0,0-1.003,12.644-1.003,12.649c-0.015,0.186,0.656,0.75,0.77,0.87c0.73,0.775,1.513,1.5,2.328,2.182 c2.689,2.252,5.769,4.049,9.068,5.242c4.679,1.693,9.683,2.616,14.23,0.099c1.788-0.99,3.452-2.336,5.386-3.039 c6.251-2.272,13.183,1.487,17.275,6.165l8.851,10.116c1.008,1.15,2.569,1.636,4.072,1.268 C202.814,330.858,204.18,327.415,202.533,324.951z" fill="#FFAD65"/></g></g></g></g></g><g opacity=".07"><g id="change2_36"><path d="M168.956,80.23c0,0,7.005-5.442,12.124,1.02c7.779,9.82-5.834,27.604-17.672,18.448L168.956,80.23z" fill="inherit"/></g><g id="change2_20"><path d="M94.904,80.868c0,0-8.071-6.08-13.191,0.383c-7.779,9.82,5.834,27.604,17.672,18.448L94.904,80.868z" fill="inherit"/></g><g id="change2_34"><path d="M120.871 99.321L103.976 143.392 133.043 152.413 142.908 105.624z" fill="inherit"/></g><g id="change2_40"><path d="M93.766,58.395c0,0-4.724,67.471,36.328,67.471c44.398,0,39.743-67.471,39.743-67.471s-0.251-30.384-38.376-30.384 C96.51,28.012,93.766,58.395,93.766,58.395z" fill="inherit"/></g><g id="change2_24"><path d="M93.6 138.357L118.447 200.333 150.096 144.748 119.961 135.02z" fill="inherit"/></g><g><g><g><g id="change2_2"><path d="M110.208,318.28l36.16-2.942l2.785-17.484l-34.556-9.146C113.709,294.741,110.208,318.28,110.208,318.28z" fill="inherit"/></g></g></g><g><g><g><g id="change2_8"><path d="M202.533,324.951l-9.894-14.799c-3.833-5.735-9.969-9.446-16.831-10.181l-36.879-3.949c0,0-1.003,12.644-1.003,12.649 c-0.015,0.186,0.656,0.75,0.77,0.87c0.73,0.775,1.513,1.5,2.328,2.182c2.689,2.252,5.769,4.049,9.068,5.242 c4.679,1.693,9.683,2.616,14.23,0.099c1.788-0.99,3.452-2.336,5.386-3.039c6.251-2.272,13.183,1.487,17.275,6.165 l8.851,10.116c1.008,1.15,2.569,1.636,4.072,1.268C202.814,330.858,204.18,327.415,202.533,324.951z" fill="inherit"/></g></g></g></g></g></g><g id="change2_35"><path d="M114.598,289.279c-0.044,0-0.089-0.006-0.134-0.017L61.703,276.52c-0.256-0.062-0.436-0.291-0.436-0.554v-86.447 c0-0.314,0.255-0.569,0.57-0.569s0.57,0.255,0.57,0.569v85.999l52.325,12.637c0.306,0.073,0.494,0.382,0.42,0.688 C115.088,289.103,114.855,289.279,114.598,289.279z" fill="inherit"/></g><g id="change2_3"><path d="M110.208,318.85c-0.005,0-0.01,0-0.015,0l-63.778-1.619c-15.283-0.388-27.563-12.663-27.956-27.945l-1.445-56.147 c-0.008-0.314,0.241-0.576,0.555-0.584c0.303,0.026,0.576,0.239,0.584,0.555l1.445,56.147 c0.377,14.676,12.169,26.463,26.846,26.836l63.778,1.619c0.314,0.008,0.563,0.27,0.555,0.584 C110.769,318.605,110.516,318.85,110.208,318.85z" fill="inherit"/></g><g id="change2_13"><path d="M156.725,265.772c-0.065,0-0.131-0.012-0.195-0.035c-0.295-0.107-0.448-0.435-0.34-0.73l0.901-2.473 c6.038-16.565,8.774-33.898,8.133-51.518l-0.388-10.662c-0.012-0.314,0.234-0.578,0.549-0.59c0.291,0.005,0.579,0.233,0.59,0.549 l0.388,10.662c0.646,17.766-2.113,35.244-8.201,51.949l-0.901,2.473C157.176,265.628,156.957,265.772,156.725,265.772z" fill="inherit"/></g><g id="change2_10"><path d="M142.908,34.184c0,0,3.126,23.963,29.057,23.844C171.966,58.028,171.547,18.589,142.908,34.184z" fill="inherit"/></g><g id="change2_27"><path d="M151.953,28.012c0,0-0.5,32.699-61.125,30.016C90.828,58.028,86.507-1.779,151.953,28.012z" fill="inherit"/></g><g id="change2_23"><path d="M138.847,124.886c0,0-9.956,3.085-19.224-0.72l16.861,11.925L138.847,124.886z" fill="inherit"/></g></svg>