<?xml version="1.0" encoding="UTF-8"?><svg xmlns="http://www.w3.org/2000/svg" xmlns:xlink="http://www.w3.org/1999/xlink" height="323.2" preserveAspectRatio="xMidYMid meet" version="1.0" viewBox="-4.7 -3.0 504.7 323.2" width="504.7" zoomAndPan="magnify"><g id="change1_1"><path d="M500.01,282.52c0,9.66-27.95,18.11-69.77,22.77c-21.82,2.43-26.48-36.2-53.85-36.2 c-2.8,0-26.52,40.02-29.29,39.99c-75.95-0.8-136.2-12.38-136.2-26.56c0-14.69,64.72-26.6,144.56-26.6S500.01,267.82,500.01,282.52z M204.73,15.98c-2.54-5.97-6.44-9.45-6.44-9.45c2.72,0.5,5.34,2.01,5.34,2.01c-1.79-6.34-13.77-11.52-21.03-6.57 c-28.42-2.93-29.44,24.76-29.44,29.15l40.25,8.3c12.84,4.25,17.38-3.28,17.38-3.28C206.37,33.8,207.21,21.81,204.73,15.98z" fill="#001321"/></g><g id="change2_1"><path d="M202.9,263.37c8.18,3.23,33.85,22.12,29.31,25.65c-4.55,3.53-59.79,3.69-63.33,1.64 c-5.31-4.93,0-27.12,0-27.12S194.72,260.14,202.9,263.37z M35.49,231.65c-2.47-1.12-18.01-8.76-28.46-7.06 c-11.73,19.99-7.4,54.16,2.87,64.43c7.22,4.81,13.03,0.05,10.57-8.4c0.34-5.42,6.12-15.27,6.12-15.27L35.49,231.65z" fill="#F8DBB3"/></g><g id="change3_1"><path d="M155.8,128.9c0,0,31.11,7.54,44.39,10.53c13.28,3,43.8,14.02,41.8,37.14c-2,23.12-37.92,87.85-37.92,87.85 c-13.43,5.21-35.18-0.88-35.18-0.88c1.91-18.71,22.58-74.69,22.58-74.69l-49.45-4.18c0,0,5.35,43.14,7.31,61.62 c1.96,18.47-3.12,40.93-27.37,42.64s-95.36-23.59-95.36-23.59c-2-13.04,8.9-33.7,8.9-33.7s57.62,8.66,57.4,7.4 c-4.17-23.56-9.47-67.29-9.47-67.29L155.8,128.9z" fill="#992800"/></g><g id="change4_1"><path d="M338.27,270.41c0,0,0.95-1.61,0.57-2.9c0,0-4.21-6.02-4.11-9.39c0.1-3.38,11.24-18.5,11.41-20.07 s2.19-5,2.19-5s0.91-32.77,3.07-38.72c2.16-5.95,6.92-5.11,9.84-7.18s8.61-2.3,11.25-0.72c2.64,1.58,5.08,1.47,8.94,2.89 c3.86,1.42,4.06,5.99,5.9,7.92c1.84,1.93,2.32,3.05,3.03,6.79c0.71,3.74,3.05,3.15,3.05,6.83c0,0,2.13-0.12,4.37,2.09 c2.23,2.21,2.13,5,6.6,7.84c4.47,2.84,2.59,3.79,4.67,7.11c2.08,3.33,3.55,1.62,6.48,3.86s1.78,6.55,5.66,7.95s6.14,0.58,7.06,4.92 c-9.34,19.26-28.29,26.71-47.87,28.46C358.94,275,338.27,270.41,338.27,270.41z M160.81,133.28c7.88,12.99,45.4,45.87,45.4,45.87 l3.18-4.21c0,0,6.17,0.7,12.59-1.89c6.42-2.59,1.03-14.8,1.03-14.8l-36.47-44.34c0,0-3.22-11.45-8.68-28.73 c-5.46-17.28-12.65-29.27-12.65-29.27s-1.77-7.35-3.32-12.45s-20.29-6.66-20.29-6.66s-26.41,10.05-45.67,50.38 s-13.76,84.32-13.76,84.32C143.83,173.92,160.81,133.28,160.81,133.28z" fill="#F16738"/></g><g id="change2_2"><path d="M369.41,243.88c0.05,2.89,1.47,2.98,2.2,6.2c0.73,3.22-2.96,8.64-0.12,13.41l3.09-0.5l12.08,1.22l0.67,44.02 c-22.8,1.12-40.24,0.84-40.24,0.84c0.07-4.96,1.87-7.38,1.87-7.38s-7.87-5.13-6.39-15.15s15.2-43.39,16.07-44.41 C358.66,242.14,369.36,240.99,369.41,243.88z" fill="#F8DBB3"/></g><g id="change5_1"><path d="M373.5,229.04c-2.5,1.97-0.7,6.22-0.85,8.68c-0.16,2.46-3.15,3.7-3.24,6.16c0.04,0.18-5.58,2.81-9.07,1.61 s-3.92-6.44-3.92-6.44s-5.1-0.65-8.81-1.27c-9.92-2.07-7.41-17.26-7.41-17.26s-2.05-0.49-1.92-1.65s4.04-6.25,4.04-6.25 c4.87-12.82,8.82-17.7,9.1-18.3c0,0,4.42-1.22,5.27,0.79c0.43,1.02,1.29,2.81,3.28,3.12c1.99,0.3,3.69,0.72,4.24,2.55 c0.55,1.82,0.08,4.56,2.61,5.48c2.53,0.92,3.9,1.45,4.17,4.22s1.16,6.7,3.44,6.52c1.4-0.11,3.17,0,4.23,1.05 c1.47,0.81,3.11,2.19,3.52,4.4l-0.49,0.09c-0.3-1.59-1.3-2.7-2.38-3.48c0.23,0.58,0.33,1.3,0.23,2.22 C379.1,225.34,376,227.07,373.5,229.04z M407.27,255.91c-8.56-10.5-15.61-14.44-21.24-14.41c-0.88-1.97-3.29-2.29-4.29-3.36 c-0.27-1.18-0.6-2.72-0.77-3.87l-0.49,0.07c0.32,2.15,1.18,5.59,1.2,5.67c-0.01,0.8-0.12,1.71-0.45,2.58 c-1.24,0.58-2.38,1.38-3.43,2.34c-7.89,7.65-0.96,42.86,9.54,63.31c0,0,27.4-1.04,42.9-2.95 C430.24,305.29,420.7,272.38,407.27,255.91z M329.92,303.67c-2.72-3.38-5.78-0.82-5.78-0.82c-1.4-2.19-3.82-0.63-4.14-0.45 c-0.16,0.09-3.16-1.48-4.2,2.76c-1.04,4.24,1.19,11.41,2.25,12.45c1.06,1.03,3.12-0.87,3.12-0.87s0.89,1.96,1.89,2.43 c1,0.47,3.31-0.35,3.6-1.91c0,0,3.2,3,5.03-1.29c2.43,2.07,4.82-1.35,4.56-6.84l4.56,0.14 C335.72,299.95,331.37,301.22,329.92,303.67z M198.01,36.14c-5.09-4.16-0.59-14.85-12.5-19.11l0.2-0.15 c-0.03-0.04-2.8-3.83-2.87-10.35l-0.5,0.01c0.07,6.58,2.75,10.35,2.95,10.62c-1.53,0.92-11.2,6.5-16.92,3.53 c-4.55-2.63-8.7,0.72-6.51,6.93c0.16,1.78-8.71,3.49-8.71,3.49l-11.58,5.67c0,0,15.33,1.15,18.91,17.82l3.28-0.72 c0,0,0.24,0.97,1.43,2.02c0,0,4.89,6.17,17.14-2.76c0,0,2.03,2.5,3.17,1.94c1.14-0.56,5.95-8.86,5.95-8.86s5.57-5.22,6.73-9.47 c0.75,0.27,1.99,0.58,3.79,0.58c0.92,0,1.98-0.08,3.19-0.29l-0.08-0.49C201.2,37.2,198.9,36.52,198.01,36.14z M299.13,227.04 c-0.1-0.01-50.64-30.5-52.73-33.22c-2.08-2.71-5.35-11.14-5.35-11.14c0.79-0.76,0.65-2.49,0-5.19c-0.65-2.7-3.45-8.39-4.99-10.03 c-1.54-1.64-13.06-9.22-13.06-9.22s-13.46,16.54-13.62,16.69c-0.16,0.14,8.35,13.33,11.93,15.77s7.74,2.23,7.74,2.23 c2.1,2.67,2.36,8.58,4.3,11.99s4.52,4.13,4.52,4.13s39.94,38.48,56.3,46.85c16.36,8.37,44.67,11.6,44.67,11.6 c2.89-2.51-0.36-7.43,2.52-10.32c2.88-2.89,1.72-6.51,1.44-9.28c-0.29-2.77,3.38-3.5,3.19-5.63c-0.2-2.12,0.17-4.25,0.17-4.25 S299.23,227.06,299.13,227.04z" fill="#FBB387"/></g><g id="change4_2"><path d="M357.73,209.25c-0.65,0.35-7.17-3.95-7.46-4.37c-0.29-0.42-0.16-1.69,1.14-2.18 C353.28,202.01,358.37,208.9,357.73,209.25z M371.63,216.53c-0.12,0.27-0.25,0.55-0.26,0.87c-0.02,0.56,0.3,0.99,0.61,1.42 c0.25,0.35,0.49,0.67,0.52,1.04c0.02,0.26-0.07,0.53-0.17,0.81c-0.03,0.09-0.06,0.19-0.09,0.28c-0.36,1.23-0.09,2.61,0.71,3.61 l0.39-0.31c-0.7-0.87-0.94-2.08-0.62-3.16c0.03-0.09,0.06-0.17,0.08-0.26c0.11-0.32,0.22-0.65,0.19-1.01 c-0.04-0.5-0.33-0.91-0.61-1.29c-0.27-0.37-0.52-0.72-0.51-1.1c0.01-0.22,0.11-0.45,0.21-0.68c0.06-0.13,0.11-0.25,0.16-0.38 c0.36-1.02,0-2.14-0.26-2.96l-0.48,0.15c0.31,0.98,0.54,1.85,0.26,2.64C371.74,216.3,371.68,216.41,371.63,216.53z M373.21,229.55 c-1.16,1.22-1.74,2.96-1.54,4.64c0.02,0.16,0.04,0.32,0.07,0.48c0.07,0.44,0.14,0.85,0.06,1.25c-0.13,0.71-0.67,1.24-1.23,1.81 c-0.21,0.21-0.43,0.43-0.62,0.65c-0.97,1.13-1.45,2.61-1.87,3.92l0.48,0.15c0.4-1.26,0.86-2.69,1.77-3.74 c0.18-0.21,0.39-0.42,0.59-0.63c0.59-0.6,1.21-1.21,1.37-2.07c0.09-0.48,0.01-0.96-0.06-1.42c-0.02-0.16-0.05-0.31-0.07-0.46 c-0.18-1.53,0.35-3.12,1.41-4.24L373.21,229.55z M409.22,224.36c-0.67-1.65-1.35-3.36-2.79-4.47c-0.59-0.46-1.28-0.77-1.94-1.08 c-0.78-0.36-1.51-0.71-2.11-1.25c-0.69-0.63-1.12-1.46-1.57-2.33c-0.21-0.41-0.44-0.84-0.69-1.25c-1.51-2.43-4.78-4.25-7.65-3.09 l0.19,0.46c2.62-1.05,5.64,0.64,7.04,2.89c0.24,0.39,0.46,0.81,0.67,1.21c0.46,0.88,0.92,1.78,1.68,2.47 c0.65,0.6,1.46,0.97,2.24,1.34c0.63,0.3,1.29,0.6,1.84,1.03c1.33,1.03,1.97,2.6,2.63,4.26c0.42,1.05,0.86,2.13,1.49,3.08l0.42-0.28 C410.06,226.44,409.63,225.38,409.22,224.36z M345.1,239.95c-0.17,0.96-0.34,1.88-0.9,2.58c-0.21,0.26-0.47,0.48-0.74,0.72 c-0.33,0.28-0.66,0.57-0.92,0.94c-0.7,1.01-0.61,2.26-0.53,3.47c0.01,0.21,0.03,0.42,0.04,0.63c0.14,2.77-0.75,5.63-2.44,7.83 l0.4,0.3c1.76-2.3,2.69-5.27,2.54-8.16c-0.01-0.21-0.03-0.42-0.04-0.64c-0.08-1.12-0.16-2.29,0.44-3.15 c0.22-0.32,0.52-0.57,0.83-0.84c0.28-0.24,0.56-0.48,0.8-0.78c0.64-0.8,0.83-1.82,1-2.8c0.16-0.91,0.32-1.77,0.81-2.47l-0.41-0.29 C345.44,238.07,345.27,239.02,345.1,239.95z" fill="#F16738"/></g><g id="change1_2"><path d="M348.05,213.34c-1.24-1.02,0.29-3.92,0.49-4.41c-0.5-0.19-0.84-0.29-0.93-0.3l0-0.5 c0.51,0,5.76,1.95,7.54,4.53l-0.41,0.29c-0.67-0.96-1.84-1.83-3.05-2.52C351.33,211.04,349.26,214.34,348.05,213.34z M341.03,226.84 l-0.28,0.41c0.09,0.06,1.65,1.1,3.93,1.1c0.85,0,1.79-0.14,2.8-0.53l-0.18-0.47C343.82,228.69,341.06,226.85,341.03,226.84z M393.18,210.79c-0.01,0.05-1.67,4.95-6.95,8.05l0.25,0.43c5.49-3.22,7.17-8.31,7.18-8.36L393.18,210.79z M354.62,238.56l-0.05,0.5 c0.13,0.01,2.04,0.21,4.29,0.21c1.65,0,3.5-0.1,4.97-0.46l-0.12-0.49C360.31,239.14,354.67,238.57,354.62,238.56z M374.34,221.9 c-0.33,0.75-0.31,1.58-0.29,2.32l0.5-0.01c-0.02-0.68-0.04-1.46,0.25-2.1c0.28-0.62,0.85-1.16,1.71-1.61l-0.23-0.44 C375.32,220.55,374.66,221.17,374.34,221.9z M349.11,301.49l-0.27,0.42c0.1,0.06,1.85,1.14,5.75,1.14c1.63,0,3.64-0.19,6.06-0.71 l-0.11-0.49C352.55,303.58,349.14,301.51,349.11,301.49z M330.16,303.7l-0.5-0.06c-0.01,0.06-0.73,6.27,1.78,12.42l0.46-0.19 C329.45,309.84,330.16,303.76,330.16,303.7z M324.34,303l-0.4-0.29c-1.52,2.09,0.69,12.97,2.55,14.73l0.34-0.36 C324.99,315.34,323.11,304.68,324.34,303z M320.21,302.52l-0.43-0.25c-1.75,3.06-0.77,11.44,1.18,14.59l0.43-0.26 C319.53,313.62,318.57,305.4,320.21,302.52z M240.46,182.85c-0.96,0.18-3.02-1.48-4.52-2.69c-0.89-0.71-1.65-1.33-2.18-1.6 c-1.46-0.74-3.54-1.48-4.08-1.66c-0.06-0.25-0.12-0.5-0.16-0.73l-0.49,0.09c0.53,3.02,2.89,7.78,4.63,10.62 c-2.45-2.26-5.38-4.65-5.83-4.88c-0.33-0.18-0.97-0.21-1.6,0.12c-0.59,0.31-1.34,1.04-1.53,2.71c-0.25,2.25,1.39,4.48,2.97,6.64 c0.31,0.42,0.6,0.83,0.9,1.25c-2.37-0.64-3.34-2.22-3.4-2.44l-0.49,0.07c0.03,0.32,1.17,2.15,3.77,2.85l0.13-0.48 c0.09,0.13,0.19,0.25,0.27,0.38l0.41-0.28c-0.37-0.55-0.78-1.1-1.18-1.65c-1.53-2.08-3.11-4.23-2.88-6.29 c0.16-1.45,0.78-2.06,1.27-2.32c0.49-0.26,0.95-0.21,1.13-0.12c0.18,0.09,1.15,0.87,2.4,1.91c-0.33,0.47-1.08,1.01-1.37,1.2 l0.27,0.42c0.05-0.03,1.01-0.65,1.48-1.3c1.57,1.33,3.46,3,4.76,4.33c0.01,0.01,0.02,0.03,0.03,0.04l0,0 c0.6,0.61,1.08,1.15,1.33,1.55l0.42-0.27c-0.26-0.41-0.77-0.98-1.4-1.62l0,0c-1.1-1.11-4.5-7.12-5.68-11.19 c0.79,0.28,2.47,0.9,3.69,1.52c0.48,0.24,1.26,0.88,2.09,1.54c1.65,1.32,3.5,2.81,4.69,2.81c0.08,0,0.16-0.01,0.24-0.02 c0.31-0.06,0.55-0.24,0.72-0.53l-0.44-0.24C240.74,182.73,240.62,182.82,240.46,182.85z M221.01,160.55 c-1.13-1.24-42.85-47.29-44-48.74c-0.95-1.22-12.07-41.76-16.28-57.27l-0.48,0.13c0.6,2.22,14.39,53.05,16.24,57.21l-3.96,2.54 l0.27,0.42l3.97-2.54c2.87,3.33,42.19,46.72,43.9,48.61l0.08,0.06c0.42,0.21,11.19,6.54,14.34,9.7c3.33,3.34,5.66,7.96,6.21,9.31 l0.46-0.19c-0.56-1.38-2.92-6.08-6.31-9.48C232.3,167.16,222.05,161.14,221.01,160.55z M153.96,123.27 c-0.22,0.17-0.54,0.49-1.12,1.09c-2.41,2.45-8.05,8.19-16.78,11.91l0.2,0.46c8.82-3.75,14.51-9.54,16.94-12.02 c0.41-0.41,0.79-0.81,1.01-0.99c2.09,3.84,4.25,7.22,6.41,9.73l0.38-0.33c-13.67-15.89-27.55-65.74-27.66-67.33l-0.25-0.01 l-0.06-0.24l-0.18,0.17c-0.12,0.37,3.55,13.66,8.64,28.08C144.77,103.05,149.18,114.38,153.96,123.27z M139.21,169.8l2.55,14.92 l0.49-0.08l-2.55-14.92L139.21,169.8z M145.01,179.76l0.43,0.25l8.23-14.3l-0.43-0.25L145.01,179.76z M127.13,260.13 c-0.16-0.19-0.32-0.38-0.47-0.57c-0.55-0.71-1.1-2.03-0.35-2.76c0.17-0.16,0.38-0.27,0.61-0.39c0.1-0.05,0.19-0.1,0.28-0.15 c0.74-0.43,1.1-1.07,1.26-1.8c1.39,0.71,2.77,1.36,3.47,1.69l0.21-0.45c-1.23-0.57-2.48-1.18-3.59-1.76 c0.08-0.84-0.05-1.76-0.17-2.63l-0.08-0.55c-0.3-2.32-7.11-35.96-11.87-59.38c0.42-1.34,9.03-26.31,9.11-26.57l-0.47-0.16 c-0.33,0.95-7.3,21.17-8.84,25.75c-2.34-11.49-4.14-20.31-4.35-21.36l-0.49,0.1c0.16,0.78,15.96,78.19,16.41,81.68l0.08,0.55 c0.11,0.79,0.21,1.58,0.18,2.3c-1.73-0.91-3.02-1.7-3.13-1.99l-0.47,0.16c0.17,0.49,1.8,1.45,3.54,2.36 c-0.12,0.67-0.41,1.24-1.05,1.61c-0.09,0.05-0.18,0.1-0.26,0.14c-0.25,0.13-0.51,0.27-0.72,0.48c-0.92,0.9-0.49,2.4,0.3,3.42 c0.15,0.2,0.32,0.39,0.48,0.59c0.2,0.24,0.39,0.47,0.56,0.7c-6.18-3.96-11.62-7.62-11.84-8.3c0,0,0.01,0.02,0,0.04l-0.5-0.05 c-0.09,0.8,6.32,5.1,12.87,9.27c0.06,0.16,0.1,0.32,0.12,0.49c0.02,0.23-0.01,0.41-0.09,0.52c-0.18,0.24-0.59,0.25-1.24,0.02 c-2.45-0.85-5.01-1.37-7.61-1.55c-0.13-0.01-0.35-0.02-0.53,0.12c-0.19,0.15-0.21,0.4-0.22,0.49c0,0.02,0,0.04,0,0.06l-2.18-1.68 l-0.3,0.4l2.55,1.96c0.06,0.3,0.16,0.59,0.27,0.87l0.04,0.12c0.17,0.46,0.33,1,0.21,1.48c-0.11,0.42-0.76,0.8-1.2,0.8 c-0.01,0-0.01,0-0.02,0c-24.29-0.52-85.73-18.5-86.34-18.68l-0.14,0.48c0.62,0.18,62.12,18.18,86.47,18.7c0.01,0,0.02,0,0.03,0 c0.64,0,1.5-0.5,1.68-1.17c0.16-0.59-0.01-1.21-0.22-1.78l-0.04-0.12c-0.02-0.06-0.04-0.12-0.06-0.18l5.53,4.26l0.3-0.4l-6.05-4.66 c-0.02-0.14-0.03-0.28-0.02-0.42c0.01-0.12,0.03-0.14,0.04-0.14c0.01-0.01,0.05-0.02,0.18-0.01c2.55,0.18,5.06,0.69,7.48,1.53 c0.33,0.11,1.32,0.46,1.81-0.2c0.16-0.22,0.23-0.51,0.19-0.87c0-0.02-0.01-0.04-0.01-0.05c3.71,2.36,7.41,4.64,9.92,6.18l0.26-0.43 c-3.09-1.89-6.82-4.22-10.39-6.49C127.99,261.15,127.56,260.63,127.13,260.13z M99.65,186.14l0-0.5c-5.51-0.05-13.9-0.17-14.41-0.31 l-0.1,0.23l-0.25,0.03C84.94,185.87,84.95,186.01,99.65,186.14z M146.78,151.09l0.22,0.24l0.02,0.18c1.03-0.1,23.94,5.63,39.06,9.51 l0.12-0.48C160.43,153.92,147.16,150.73,146.78,151.09z M197.75,181.38l-6.48,7.31l0.37,0.33l6.48-7.31L197.75,181.38z M95.86,241.44l0.29-0.41l-3.11-2.19l-0.29,0.41L95.86,241.44z M215.81,183.16l0.12,0.04l-0.07-0.28l-0.29-0.02 c-0.01,0-0.03,0.06-0.07,0.15l-0.04-0.01l0.04,0.01c-0.86,2-8.84,23.24-15.57,41.18c-15.52,41.39-15.42,41.93-15.39,42.13l0.5-0.05 c0.16-1.98,30.59-82.36,30.89-83.1L215.81,183.16z M167.38,276.96c-0.22-0.07-0.45-0.14-0.5-0.17l-0.16,0.19l-0.21,0.14 c0.08,0.12,0.21,0.16,0.72,0.32c7.09,2.23,10.95,7.05,11.49,14.32l0.5-0.04C178.67,284.23,174.69,279.26,167.38,276.96z M215.17,291.05c0.02,0.17,0.03,0.29,0.02,0.33l0.24,0.04l0.17,0.19c0.11-0.09,0.1-0.15,0.06-0.6c-0.62-7.08,1.56-12.3,6.31-15.09 l-0.25-0.43C216.87,278.34,214.54,283.86,215.17,291.05z M17.19,270.27l1.91,6.54c-4.83-1.93-10.7,1.48-13.26,2.98 c-0.5,0.29-1.01,0.59-1.13,0.61c0.04-0.01,0.15,0.02,0.2,0.13l-0.46,0.2l0.17,0.16c0.03,0.01,0.06,0.02,0.1,0.02 c0.2,0,0.51-0.17,1.37-0.68c2.56-1.5,8.52-4.97,13.19-2.8l0.96,3.28l0.48-0.14l-3.04-10.42L17.19,270.27z M19.19,225.59l-0.48-0.13 c-2.94,10.44-16.13,10.54-16.33,10.54c0,0,0,0,0,0l0,0.5c0,0,0,0,0,0C2.6,236.49,16.14,236.39,19.19,225.59z M164.18,26.19 c0.83-1.11,1.34-2.49,1.41-3.88c0.01-0.12,0-0.41-0.17-0.6c-0.08-0.09-0.2-0.15-0.32-0.15l-0.05,0.49c0.02,0.02,0.05,0.11,0.04,0.24 c-0.07,1.29-0.54,2.57-1.32,3.61L164.18,26.19z M191.28,39.31c0.64,0.55,2.43-1.21,2.08-1.91c-0.34-0.7-6.59-4.33-6.77-3.64 C186.2,35.28,190.64,38.77,191.28,39.31z M176.24,54.84l0.21-0.45c-3.38-1.57-3.53-5.29-3.53-5.33l-0.5,0.01 C172.42,49.11,172.57,53.14,176.24,54.84z M165.38,55.74c-0.02-0.02-2.14-2.51-2.8-5.17l-0.49,0.12c0.69,2.77,2.82,5.27,2.91,5.37 L165.38,55.74z M183.82,42.3c0.35,0.91,3.06-0.88,3.83-1.41c0.25,0.31,0.49,0.63,0.7,0.96l0.42-0.28c-1.99-3.02-5.53-5.54-5.68-5.64 l-0.29,0.41c0.02,0.02,1.49,1.06,3.06,2.59C185.28,39.51,183.47,41.4,183.82,42.3z M380.23,242.85l0.23,0.44 c0.04-0.02,4.66-2.18,8.81-1.14l0.12-0.48C385.05,240.58,380.28,242.83,380.23,242.85z M345.4,212.43c0.32,1.4,1.09,2.7,2.16,3.65 l0.33-0.38c-1-0.88-1.71-2.08-2-3.38L345.4,212.43z M207.01,269.93l0.37,0.34l2.73-2.92l-0.37-0.34L207.01,269.93z M210.71,272.76 l0.37,0.34l2.9-3.19l-0.37-0.34L210.71,272.76z M217.42,272.27l-2.92,3.26l0.37,0.33l2.92-3.26L217.42,272.27z M25.53,267.19 l0.15-0.16c-0.26-0.24-2.13-3.26-2.13-5.02h-0.5c0,1.79,2,5.35,2.42,5.46l0.29-0.13l-0.22-0.12L25.53,267.19z M20.12,265.82 L19.66,266c0.7,1.8,4.07,4.29,4.22,4.39l0.3-0.4C24.13,269.97,20.77,267.49,20.12,265.82z M18.77,271.34 c1.41,1.48,3.48,2.51,3.57,2.55l0.22-0.45c-0.02-0.01-2.08-1.04-3.43-2.45L18.77,271.34z" fill="#001321"/></g></svg>